<svg id="Komponente_1_1" data-name="Komponente 1 – 1" xmlns="http://www.w3.org/2000/svg" width="203.09" height="286.66" viewBox="0 0 203.09 286.66">
  <path id="Pfad_88" data-name="Pfad 88" d="M300,535.22l-82.94-23-18.48-207.3H401.67l-18.5,207.27Z" transform="translate(-198.58 -248.56)" fill="#264de4"/>
  <path id="Pfad_89" data-name="Pfad 89" d="M367.33,499l15.81-177.12h-83V517.59Z" transform="translate(-198.58 -248.56)" fill="#2965f1"/>
  <path id="Pfad_90" data-name="Pfad 90" d="M241,398.73l2.28,25.42h56.9V398.73Zm-4.58-51.46,2.31,25.42h61.44V347.27h-63.8Zm63.75,117.49h-.11l-28.32-7.65-1.81-20.28H244.36l3.56,39.92L300,491.24h.12Z" transform="translate(-198.58 -248.56)" fill="#ebebeb"/>
  <path id="Pfad_91" data-name="Pfad 91" d="M246.38,248.56h30.79v12.88H259.25v12.88h17.92V287.2H246.38Zm37,0h30.79v11.2H296.21V262h17.92v25.76h-30.8V276h17.92v-2.24H283.33v-25.2Zm37,0h30.79v11.2H333.16V262h17.92v25.76h-30.8V276H338.2v-2.24H320.28v-25.2Z" transform="translate(-198.58 -248.56)"/>
  <path id="Pfad_92" data-name="Pfad 92" d="M359.14,398.73l4.59-51.46H300v25.42h35.83l-2.31,26H300v25.42h31.31l-3,33L300,464.78v26.45l52.12-14.45.38-4.3,6-66.94.62-6.83Z" transform="translate(-198.58 -248.56)" fill="#fff"/>
</svg>
