<svg xmlns="http://www.w3.org/2000/svg" width="69.353" height="151.222" viewBox="0 0 69.353 151.222">
  <g id="Flower" transform="translate(-781.647 -553.327)">
    <path id="Pfad_41" data-name="Pfad 41" d="M1019.5,649.308c0,26.115-15.525,35.234-34.676,35.234s-34.676-9.118-34.676-35.234,34.676-59.338,34.676-59.338S1019.5,623.193,1019.5,649.308Z" transform="translate(-168.5 -36.643)" fill="#6c63ff"/>
    <path id="Pfad_42" data-name="Pfad 42" d="M815.416,622.048,830.2,595.009l-14.724,23.61.16-9.827,10.186-19.563-10.144,16.962.287-17.675,10.908-15.574-10.863,12.795.18-32.41-1.079,41.067L804.06,577.487l10.912,20.372-1.033,19.74-.031-.524-12.785-17.863,12.746,19.714-.129,2.469-.023.037.011.2-2.622,26.342h3.5l.42-2.128,12.715-19.667L815.06,643.9Z" fill="#3f3d56"/>
    <path id="Pfad_43" data-name="Pfad 43" d="M838.47,704.549H797.129l-10.684-60.386h60.386Z" fill="#2f2e41"/>
  </g>
</svg>
