<svg id="Komponente_3_1" data-name="Komponente 3 – 1" xmlns="http://www.w3.org/2000/svg" width="263.17" height="263.15" viewBox="0 0 263.17 263.15">
  <path id="Pfad_95" data-name="Pfad 95" d="M585,276.09H848.17V539.24H585Z" transform="translate(-585 -276.09)" fill="#f7df1e"/>
  <path id="Pfad_96" data-name="Pfad 96" d="M654.21,496l20.14-12.19c3.89,6.89,7.42,12.72,15.9,12.72,8.13,0,13.25-3.18,13.25-15.54V396.9h24.73v84.43c0,25.61-15,37.27-36.92,37.27-19.78,0-31.26-10.25-37.09-22.61m87.44-2.65,20.13-11.66c5.3,8.66,12.19,15,24.38,15,10.25,0,16.78-5.12,16.78-12.19,0-8.48-6.71-11.48-18-16.43l-6.18-2.65c-17.84-7.59-29.68-17.13-29.68-37.27,0-18.55,14.13-32.68,36.21-32.68,15.72,0,27,5.48,35.15,19.78L801.2,427.61c-4.24-7.6-8.83-10.6-15.9-10.6-7.24,0-11.84,4.59-11.84,10.6,0,7.42,4.59,10.42,15.19,15l6.18,2.65c21,9,32.86,18.19,32.86,38.86,0,22.26-17.49,34.45-41,34.45-23,0-37.8-11-45-25.26" transform="translate(-585 -276.09)"/>
</svg>
