<svg id="Komponente_1_1" data-name="Komponente 1 – 1" xmlns="http://www.w3.org/2000/svg" width="252.62" height="671.998" viewBox="0 0 252.62 671.998">
  <g id="man" transform="translate(-264.559 -107.65)">
    <circle id="Ellipse_5" data-name="Ellipse 5" cx="38.247" cy="38.247" r="38.247" transform="translate(356.392 117.648)" fill="#ffb9b9"/>
    <path id="Pfad_26" data-name="Pfad 26" d="M534.957,211.661v60.39h62.4s-8.052-50.325-4.026-65.422Z" transform="translate(-168.5 -36.643)" fill="#ffb9b9"/>
    <path id="Pfad_27" data-name="Pfad 27" d="M658.756,293.187s-59.383-29.188-59.383-31.2-6.039-15.1-10.065-15.1-38.247-11.071-57.37,5.032l-2.013,13.084-73.474,48.312,20.13,73.474s13.084,14.091,9.058,24.156,3.019,61.4,3.019,61.4l158.019-5.032V398.868s5.032-16.1,8.052-21.136,0-20.13,0-20.13l24.156-30.195S675.866,299.225,658.756,293.187Z" transform="translate(-168.5 -36.643)" fill="#d0cde1"/>
    <path id="Pfad_28" data-name="Pfad 28" d="M458.967,337.975l4.529-24.659S437.328,427.05,440.347,440.134s25.162,33.214,28.182,34.221,31.2-86.558,31.2-86.558Z" transform="translate(-168.5 -36.643)" opacity="0.1"/>
    <path id="Pfad_29" data-name="Pfad 29" d="M473.561,310.3l-17.11,3.019S430.282,427.05,433.3,440.134s25.162,33.214,28.182,34.221,31.2-86.558,31.2-86.558Z" transform="translate(-168.5 -36.643)" fill="#d0cde1"/>
    <path id="Pfad_30" data-name="Pfad 30" d="M664.291,344.014l8.555-16.607s12.078,113.734,4.026,124.8-39.9,15.214-39.9,15.214l-.357-82.649Z" transform="translate(-168.5 -36.643)" opacity="0.1"/>
    <path id="Pfad_31" data-name="Pfad 31" d="M665.8,314.323l13.084,13.084s12.078,113.734,4.026,124.8-39.9,15.214-39.9,15.214l-.357-82.649Z" transform="translate(-168.5 -36.643)" fill="#d0cde1"/>
    <path id="Pfad_32" data-name="Pfad 32" d="M470.542,487.439s-29.188-11.071-34.221,10.065S448.4,613.251,448.4,613.251s11.071,71.461,18.117,73.474,38.247,3.019,43.279-6.039S494.7,579.03,494.7,579.03l116.753-2.013s-7.045,80.519-11.071,87.565-4.026,31.2,0,31.2,48.312-2.013,51.331-8.052,20.13-141.915,20.13-141.915,14.091-47.305-2.013-44.286S470.542,487.439,470.542,487.439Z" transform="translate(-168.5 -36.643)" fill="#3f3d56"/>
    <path id="Pfad_33" data-name="Pfad 33" d="M642.652,683.705s10.065-7.045,15.1,0,7.045,15.1-15.1,27.175-39.253,9.058-39.253,7.045V688.738Z" transform="translate(-168.5 -36.643)" fill="#2f2e41"/>
    <path id="Pfad_34" data-name="Pfad 34" d="M468.529,680.686s-10.065-7.045-15.1,0-7.046,15.1,15.1,27.175,39.253,9.058,39.253,7.045V685.718Z" transform="translate(-168.5 -36.643)" fill="#2f2e41"/>
    <path id="Pfad_35" data-name="Pfad 35" d="M563.387,144.312a32.348,32.348,0,0,0-11.233,1.6,43.428,43.428,0,0,0-8,4.234l-16.886,10.5a7.908,7.908,0,0,0-4.766,7.37l-2.11,15.8c-.532,3.988-1.023,8.252.762,11.858,1.49,3.009,4.331,5.069,6.668,7.48a27.456,27.456,0,0,1,7.236,14.061c1.208,6.6.435,14.542,5.656,18.753,2.827,2.28,6.68,2.711,10.306,2.923a153.786,153.786,0,0,0,29.7-1.143,11.82,11.82,0,0,0,4.487-1.257c1.775-1.05,2.892-2.9,3.937-4.681,3.771-6.42,7.657-13.249,7.616-20.694-.02-3.683-.963-7.639.806-10.87A42.5,42.5,0,0,1,600.6,196.3c2.19-3.077,2.616-7.03,2.973-10.79,1.14-12.009-.052-21.147-8.9-29.606C586.41,148.011,574.654,144.385,563.387,144.312Z" transform="translate(-168.5 -36.643)" fill="#2f2e41"/>
  </g>
  <g id="chair" transform="translate(-264.559 -107.65)">
    <path id="Pfad_36" data-name="Pfad 36" d="M300.937,569.7,267.346,740.458h16.795L316.333,572.5Z" fill="#2f2e41"/>
    <path id="Pfad_37" data-name="Pfad 37" d="M408.708,583.7,429.7,779.648h14L431.1,578.1Z" fill="#2f2e41"/>
    <path id="Pfad_38" data-name="Pfad 38" d="M466.093,578.1l29.392,130.166h14L481.489,575.3Z" fill="#2f2e41"/>
    <path id="Pfad_39" data-name="Pfad 39" d="M354.123,578.1l-4.2,103.573h11.2l8.4-103.573Z" fill="#2f2e41"/>
    <path id="Pfad_40" data-name="Pfad 40" d="M445.643,588.151s-22.394-149.76,40.589-153.959,152.559,0,152.559,0,51.786-4.2,36.39,153.959c0,0,14,46.188-111.97,41.989S445.643,588.151,445.643,588.151Z" transform="translate(-168.5 -36.643)" fill="#6c63ff"/>
  </g>
</svg>
