<svg id="Komponente_1_1" data-name="Komponente 1 – 1" xmlns="http://www.w3.org/2000/svg" width="304.181" height="250.291" viewBox="0 0 304.181 250.291">
  <path id="Pfad_18" data-name="Pfad 18" d="M701.016,390.069l-4.669,29.808s-22.984,12.21-6.823,12.569,92.3,0,92.3,0,14.724,0-8.619-12.929l-4.669-31.244Z" transform="translate(-582.324 -182.315)" fill="#3f3d56"/>
  <path id="Pfad_19" data-name="Pfad 19" d="M686.273,432.123a63.569,63.569,0,0,1,10.074-6.669l4.669-29.807,67.516.064L773.2,425.1a61.3,61.3,0,0,1,10.788,7.1c3-.684,6.274-3.226-10.788-12.676l-4.669-31.244-67.516,1.8-4.669,29.807S677.034,430.139,686.273,432.123Z" transform="translate(-582.324 -182.315)" opacity="0.1"/>
  <rect id="Rechteck_1" data-name="Rechteck 1" width="304.18" height="211.885" rx="10.695" fill="#3f3d56"/>
  <rect id="Rechteck_2" data-name="Rechteck 2" width="283.71" height="158.734" transform="translate(10.235 11.312)" fill="#f2f2f2"/>
  <circle id="Ellipse_2" data-name="Ellipse 2" cx="1.796" cy="1.796" r="1.796" transform="translate(150.294 4.488)" fill="#f2f2f2"/>
  <path id="Pfad_20" data-name="Pfad 20" d="M886.505,364.931v18.574a10.694,10.694,0,0,1-10.7,10.695H593.019a10.694,10.694,0,0,1-10.695-10.7V364.931Z" transform="translate(-582.324 -182.315)" fill="#3f3d56"/>
  <circle id="Ellipse_3" data-name="Ellipse 3" cx="6.823" cy="6.823" r="6.823" transform="translate(145.267 190.517)" fill="#f2f2f2"/>
</svg>
