<svg xmlns="http://www.w3.org/2000/svg" width="610.886" height="368.542" viewBox="0 0 610.886 368.542">
  <path id="Pfad_27" data-name="Pfad 27" d="M483.528,398.7H598.747v9.158H494.09v68.924h98.416v9.158H494.09v75.672H599.948v9.158H483.529Zm125.541,0h12.242l54.249,75.672L731.009,398.7l75.42-96.121L682.521,482.329l63.85,88.445H733.649L675.56,490.282l-58.33,80.492H604.748l64.331-88.445Zm141.863,9.158V398.7h131.3v9.158h-60.49V570.774H811.182V407.862ZM339.385,398.7h13.2l182.05,272.421L459.4,570.774,350.427,411.718l-.48,159.056H339.385ZM881.169,558.852a3.833,3.833,0,1,1,3.776-3.833,3.733,3.733,0,0,1-3.776,3.833Zm10.378-10.083H897.2c.077,3.061,2.312,5.119,5.6,5.119,3.673,0,5.754-2.212,5.754-6.353V521.3h5.754V547.56c0,7.459-4.316,11.755-11.457,11.755-6.7,0-11.3-4.167-11.3-10.546Zm30.287-.334h5.7c.488,3.524,3.93,5.762,8.888,5.762,4.624,0,8.015-2.392,8.015-5.685,0-2.829-2.158-4.527-7.064-5.685L932.6,541.67c-6.7-1.569-9.762-4.81-9.762-10.263,0-6.611,5.395-11.009,13.487-11.009,7.527,0,13.024,4.4,13.358,10.649h-5.6c-.539-3.421-3.519-5.556-7.835-5.556-4.547,0-7.578,2.186-7.578,5.53,0,2.649,1.952,4.167,6.782,5.3l4.084,1c7.6,1.775,10.738,4.861,10.738,10.443,0,7.1-5.5,11.549-14.283,11.549-8.22,0-13.743-4.244-14.154-10.88Z" transform="translate(-339.385 -302.583)"/>
</svg>
