<svg id="Komponente_1_1" data-name="Komponente 1 – 1" xmlns="http://www.w3.org/2000/svg" width="153.203" height="137.804" viewBox="0 0 153.203 137.804">
  <path id="Pfad_16" data-name="Pfad 16" d="M770.2,447.589c-.037,11.57,11.227,22.406,29.019,28.551-3.613,17.895-.739,32.337,8.994,37.991,10,5.812,24.949,1.858,39.161-10.486,13.777,11.932,27.724,16.655,37.485,11.046,10.032-5.765,13.126-21.167,9.529-39.644,18.571-6.075,28.978-15.252,29.015-26.974.036-11.3-11.252-21.114-28.8-27.219,4-19.216.706-33.309-9.43-39.2-9.772-5.677-23.912-.8-37.969,11.355-14.543-12.995-28.515-16.992-38.678-11.152-9.8,5.631-12.636,20.318-9.126,38.566C782.164,426.372,770.233,436.333,770.2,447.589Z" transform="translate(-770.198 -379.238)" fill="#fff"/>
  <path id="Pfad_17" data-name="Pfad 17" d="M890.856,426.849q-2.17-.752-4.376-1.394.371-1.486.686-2.985c3.366-16.084,1.24-29.056-6.15-33.347-7.085-4.116-18.706.116-30.462,10.281q-1.738,1.506-3.4,3.1-1.1-1.065-2.248-2.089c-12.252-10.948-24.553-15.584-31.962-11.327-7.1,4.082-9.243,16.265-6.306,31.527q.438,2.267.991,4.51c-1.744.489-3.429,1.012-5.041,1.568-14.42,4.976-23.645,12.819-23.67,20.982-.027,8.432,9.822,16.921,24.81,22.1q1.823.627,3.675,1.162-.61,2.411-1.084,4.854c-2.893,14.978-.708,26.885,6.351,30.987,7.291,4.235,19.565-.056,31.536-10.453q1.419-1.233,2.847-2.608,1.786,1.734,3.667,3.367c11.532,9.987,22.94,14.041,30.019,9.973,7.311-4.2,9.723-16.978,6.693-32.542q-.347-1.783-.8-3.639,1.293-.377,2.533-.782c15.614-5.118,25.789-13.441,25.815-21.986.026-8.193-9.445-16.147-24.123-21.253Z" transform="translate(-770.198 -379.238)" fill="#53c1de"/>
  <path id="Pfad_18" data-name="Pfad 18" d="M887.353,464.565c-.744.244-1.509.479-2.287.708a136.408,136.408,0,0,0-6.835-17.258,136.363,136.363,0,0,0,6.675-16.964c1.39.408,2.74.837,4.041,1.289,12.577,4.373,20.237,10.806,20.221,15.744-.017,5.26-8.333,12.062-21.814,16.482ZM881.73,475.62c1.34,6.882,1.515,13.1.6,17.959-.824,4.365-2.463,7.272-4.481,8.432-4.3,2.468-13.456-.787-23.317-9.327q-1.7-1.469-3.411-3.13a136.6,136.6,0,0,0,11.45-14.445A135.681,135.681,0,0,0,881,472.327q.41,1.681.726,3.294Zm-56.593,25.8c-4.194,1.466-7.53,1.5-9.543.329-4.284-2.488-6.038-12.05-3.564-24.859q.441-2.271,1.008-4.514a136.677,136.677,0,0,0,18.327,2.712A141.434,141.434,0,0,0,843,489.551q-1.27,1.221-2.6,2.379c-5.294,4.6-10.594,7.855-15.261,9.487Zm-19.508-37.141c-6.627-2.289-12.1-5.253-15.842-8.48-3.365-2.9-5.06-5.776-5.053-8.1.016-4.954,7.422-11.25,19.755-15.506q2.322-.8,4.688-1.459a139.39,139.39,0,0,0,6.577,17.2,141.517,141.517,0,0,0-6.769,17.407Q807.294,464.847,805.629,464.275Zm6.72-44.76c-2.516-13.076-.787-22.929,3.494-25.389,4.56-2.621,14.613,1.169,25.192,10.621.676.6,1.355,1.237,2.035,1.891a139.283,139.283,0,0,0-11.635,14.306,142.02,142.02,0,0,0-18.165,2.764q-.514-2.086-.922-4.2Zm58.643,14.677q-1.984-3.453-4.116-6.817c4.34.562,8.5,1.3,12.4,2.207a123.961,123.961,0,0,1-4.392,11.7q-1.875-3.585-3.892-7.092ZM847.133,410.8a124.3,124.3,0,0,1,7.976,9.691q-8.035-.405-16.081-.054c2.654-3.477,5.372-6.707,8.1-9.636Zm-24.161,23.275q-2.013,3.466-3.863,7.024c-1.68-4.02-3.116-7.971-4.286-11.787,3.885-.857,8.027-1.553,12.342-2.079Q824.988,430.609,822.972,434.079Zm4.185,34.747a123.765,123.765,0,0,1-12.533-2.056c1.214-3.875,2.706-7.9,4.448-12q1.834,3.571,3.835,7.052,2.041,3.551,4.249,7Zm19.9,16.555c-2.745-2.981-5.483-6.278-8.155-9.823q3.907.166,7.96.179,4.16.013,8.214-.156a123.6,123.6,0,0,1-8.018,9.8ZM874.9,454.74a123.433,123.433,0,0,1,4.531,11.983,123.343,123.343,0,0,1-12.7,2.123q2.168-3.413,4.2-6.91,2.064-3.554,3.969-7.2Zm-8.995,4.277q-3.108,5.361-6.56,10.511c-4.038.276-8.21.411-12.461.4-4.234-.013-8.352-.158-12.317-.428q-3.507-5.157-6.616-10.569-3.092-5.379-5.77-10.981,2.7-5.583,5.822-10.95h0q3.115-5.365,6.63-10.482c4.047-.293,8.2-.44,12.391-.427,4.213.013,8.366.188,12.411.509q3.445,5.127,6.522,10.488,3.093,5.371,5.831,10.935-2.744,5.6-5.881,10.995Zm12.2-64.868c4.547,2.642,6.286,13.244,3.38,27.13q-.286,1.357-.62,2.7a139.232,139.232,0,0,0-18.183-2.931,136.54,136.54,0,0,0-11.456-14.39q1.533-1.469,3.138-2.86c10.073-8.71,19.471-12.132,23.741-9.651Z" transform="translate(-770.198 -379.238)" fill="#fff"/>
  <path id="Pfad_19" data-name="Pfad 19" d="M846.989,435.738A12.15,12.15,0,1,1,834.8,447.849a12.15,12.15,0,0,1,12.188-12.111" transform="translate(-770.198 -379.238)" fill="#53c1de"/>
</svg>
