<svg id="Komponente_1_1" data-name="Komponente 1 – 1" xmlns="http://www.w3.org/2000/svg" width="863" height="681.042" viewBox="0 0 863 681.042">
  <g id="Floor" transform="translate(0 -145.672)">
    <path id="Pfad_2" data-name="Pfad 2" d="M1030.5,739.357c0,43.354-189.189,124-427.5,124s-434.5-75.646-434.5-119,196.189-38,434.5-38S1030.5,696,1030.5,739.357Z" transform="translate(-168.5 -36.643)" fill="#3f3d56"/>
    <path id="Pfad_3" data-name="Pfad 3" d="M1030.5,739.357c0,43.354-189.189,124-427.5,124s-434.5-75.646-434.5-119,196.189-38,434.5-38S1030.5,696,1030.5,739.357Z" transform="translate(-168.5 -36.643)" opacity="0.1"/>
    <ellipse id="Ellipse_1" data-name="Ellipse 1" cx="431.5" cy="78.5" rx="431.5" ry="78.5" transform="translate(0 628.714)" fill="#3f3d56"/>
  </g>
  <g id="Table" transform="translate(0 -145.672)">
    <path id="Pfad_4" data-name="Pfad 4" d="M594.859,440.238V650.182l35.117,57.231,2.673,4.353H771.212l2.8-271.528Z" fill="#2f2e41"/>
    <path id="Pfad_5" data-name="Pfad 5" d="M594.859,440.238V650.182l35.117,57.231,2.155-267.175Z" opacity="0.1"/>
    <path id="Pfad_6" data-name="Pfad 6" d="M260.348,434.639V644.583l-35.117,57.231-2.673,4.353H83.994l-2.8-271.528Z" fill="#2f2e41"/>
    <path id="Pfad_7" data-name="Pfad 7" d="M260.348,434.639V644.583l-35.117,57.231-2.156-267.175Z" opacity="0.1"/>
    <path id="Pfad_8" data-name="Pfad 8" d="M816,430.44v12.6H63V424.842l69.981-36.39H754.416Z" fill="#2f2e41"/>
    <path id="Pfad_9" data-name="Pfad 9" d="M816,430.44v12.6H63V424.842Z" opacity="0.1"/>
    <path id="Pfad_10" data-name="Pfad 10" d="M170.771,493.424H137.18l-14-9.8h62.983Z" opacity="0.1"/>
    <path id="Pfad_11" data-name="Pfad 11" d="M170.771,534.013H137.18l-14-9.8h62.983Z" opacity="0.1"/>
    <path id="Pfad_12" data-name="Pfad 12" d="M170.771,591.4H137.18l-14-9.8h62.983Z" opacity="0.1"/>
    <path id="Pfad_13" data-name="Pfad 13" d="M170.771,648.782H137.18l-14-9.8h62.983Z" opacity="0.1"/>
    <path id="Pfad_14" data-name="Pfad 14" d="M684.435,499.022h33.591l14-9.8H669.039Z" opacity="0.1"/>
    <path id="Pfad_15" data-name="Pfad 15" d="M684.435,539.611h33.591l14-9.8H669.039Z" opacity="0.1"/>
    <path id="Pfad_16" data-name="Pfad 16" d="M684.435,597h33.591l14-9.8H669.039Z" opacity="0.1"/>
    <path id="Pfad_17" data-name="Pfad 17" d="M684.435,654.381h33.591l14-9.8H669.039Z" opacity="0.1"/>
  </g>
  <g id="Computer" transform="translate(0 -145.672)">
    <path id="Pfad_18" data-name="Pfad 18" d="M701.016,390.069l-4.669,29.808s-22.984,12.21-6.823,12.569,92.3,0,92.3,0,14.724,0-8.619-12.929l-4.669-31.244Z" transform="translate(-168.5 -36.643)" fill="#3f3d56"/>
    <path id="Pfad_19" data-name="Pfad 19" d="M686.273,432.123a63.569,63.569,0,0,1,10.074-6.669l4.669-29.807,67.516.064L773.2,425.1a61.3,61.3,0,0,1,10.788,7.1c3-.684,6.274-3.226-10.788-12.676l-4.669-31.244-67.516,1.8-4.669,29.807S677.034,430.139,686.273,432.123Z" transform="translate(-168.5 -36.643)" opacity="0.1"/>
    <rect id="Rechteck_1" data-name="Rechteck 1" width="304.18" height="211.885" rx="10.695" transform="translate(413.824 145.672)" fill="#3f3d56"/>
    <rect id="Rechteck_2" data-name="Rechteck 2" width="283.71" height="158.734" transform="translate(424.059 156.984)" fill="#f2f2f2"/>
    <circle id="Ellipse_2" data-name="Ellipse 2" cx="1.796" cy="1.796" r="1.796" transform="translate(564.118 150.16)" fill="#f2f2f2"/>
    <path id="Pfad_20" data-name="Pfad 20" d="M886.505,364.931v18.574a10.694,10.694,0,0,1-10.7,10.695H593.019a10.694,10.694,0,0,1-10.695-10.7V364.931Z" transform="translate(-168.5 -36.643)" fill="#3f3d56"/>
    <circle id="Ellipse_3" data-name="Ellipse 3" cx="6.823" cy="6.823" r="6.823" transform="translate(559.091 336.189)" fill="#f2f2f2"/>
    <path id="Pfad_21" data-name="Pfad 21" d="M555.281,415.2v3.592H362.071v-2.873l.266-.719,4.762-12.928H551.331Z" fill="#3f3d56"/>
    <path id="Pfad_22" data-name="Pfad 22" d="M798.135,448.323c-.352,1.5-1.681,3.092-4.683,4.593-10.774,5.387-32.68-1.436-32.68-1.436s-16.879-2.873-16.879-10.415a13.466,13.466,0,0,1,1.48-.88c4.53-2.4,19.548-8.31,46.178.25a11.106,11.106,0,0,1,5.062,3.317,5.3,5.3,0,0,1,1.523,4.57Z" transform="translate(-168.5 -36.643)" fill="#3f3d56"/>
    <path id="Pfad_23" data-name="Pfad 23" d="M798.135,448.323c-13.187,5.053-24.941,5.43-37-2.948-6.084-4.223-11.611-5.268-15.758-5.189,4.53-2.4,19.548-8.31,46.178.25a11.106,11.106,0,0,1,5.062,3.317,5.3,5.3,0,0,1,1.523,4.57Z" transform="translate(-168.5 -36.643)" opacity="0.1"/>
    <ellipse id="Ellipse_4" data-name="Ellipse 4" cx="4.669" cy="1.437" rx="4.669" ry="1.437" transform="translate(608.432 405.859)" fill="#f2f2f2"/>
    <path id="Pfad_24" data-name="Pfad 24" d="M555.281,415.2v3.592H362.071v-2.873l.266-.719Z" opacity="0.1"/>
  </g>
  <g id="PictureFrame" transform="translate(0 -145.672)">
    <rect id="Rechteck_3" data-name="Rechteck 3" width="86" height="100.828" transform="translate(145 296.3)" fill="#3f3d56"/>
    <rect id="Rechteck_4" data-name="Rechteck 4" width="59.31" height="69.536" transform="translate(158.345 311.946)" fill="#f2f2f2"/>
    <g id="React" transform="translate(-404.321 26.961)">
      <path id="Pfad_61" data-name="Pfad 61" d="M770.2,404.456c-.013,4.269,4.142,8.267,10.707,10.534-1.333,6.6-.273,11.931,3.318,14.017,3.691,2.144,9.2.686,14.448-3.869,5.083,4.4,10.229,6.145,13.83,4.076,3.7-2.127,4.843-7.81,3.516-14.627,6.852-2.241,10.691-5.627,10.705-9.952.013-4.17-4.151-7.79-10.627-10.043,1.474-7.09.261-12.289-3.479-14.462-3.606-2.094-8.823-.3-14.009,4.189-5.366-4.794-10.521-6.269-14.27-4.114-3.615,2.078-4.662,7.5-3.367,14.229C774.613,396.628,770.211,400.3,770.2,404.456Z" transform="translate(-206.415 -85)" fill="#fff"/>
      <path id="Pfad_62" data-name="Pfad 62" d="M820.22,402.03q-.8-.277-1.615-.514.137-.548.253-1.1c1.242-5.934.457-10.72-2.269-12.3-2.614-1.519-6.9.043-11.239,3.793q-.641.556-1.254,1.143-.407-.393-.829-.771c-4.521-4.039-9.059-5.75-11.792-4.179-2.621,1.506-3.41,6-2.327,11.632q.162.836.366,1.664c-.644.181-1.265.373-1.86.578-5.32,1.836-8.724,4.729-8.733,7.741-.01,3.111,3.624,6.243,9.154,8.153q.673.231,1.356.429-.225.89-.4,1.791c-1.067,5.526-.261,9.919,2.343,11.433,2.69,1.563,7.218-.021,11.635-3.857q.523-.455,1.051-.962.659.64,1.353,1.242c4.255,3.685,8.464,5.18,11.075,3.68,2.7-1.55,3.587-6.264,2.469-12.006q-.128-.658-.3-1.343.477-.139.934-.289c5.761-1.888,9.515-4.959,9.525-8.112C829.13,406.848,825.636,403.914,820.22,402.03Z" transform="translate(-211.921 -90.226)" fill="#53c1de"/>
      <path id="Pfad_63" data-name="Pfad 63" d="M822.6,419.6c-.275.09-.557.177-.844.261a50.325,50.325,0,0,0-2.522-6.367,50.323,50.323,0,0,0,2.463-6.259c.513.15,1.011.309,1.491.476,4.64,1.614,7.466,3.987,7.461,5.809-.006,1.941-3.074,4.45-8.048,6.081Zm-2.075,4.079a18.159,18.159,0,0,1,.22,6.626,4.432,4.432,0,0,1-1.653,3.111c-1.585.911-4.964-.29-8.6-3.441q-.626-.542-1.259-1.155a50.4,50.4,0,0,0,4.225-5.33,50.058,50.058,0,0,0,6.8-1.026q.151.62.268,1.215Zm-20.88,9.517a4.431,4.431,0,0,1-3.521.121c-1.581-.918-2.228-4.446-1.315-9.172q.163-.838.372-1.665a50.436,50.436,0,0,0,6.762,1,52.181,52.181,0,0,0,4.292,5.338q-.469.451-.959.878a18.161,18.161,0,0,1-5.63,3.5Zm-7.2-13.7a18.165,18.165,0,0,1-5.845-3.129,4.432,4.432,0,0,1-1.864-2.99c.006-1.828,2.738-4.151,7.289-5.721q.857-.294,1.729-.538a51.435,51.435,0,0,0,2.427,6.348,52.231,52.231,0,0,0-2.5,6.422Q793.058,419.707,792.443,419.5Zm2.48-16.514c-.928-4.825-.29-8.46,1.289-9.367,1.683-.967,5.392.431,9.295,3.919.249.223.5.456.751.7a51.386,51.386,0,0,0-4.293,5.278,52.4,52.4,0,0,0-6.7,1.02q-.19-.77-.34-1.548Zm21.636,5.415q-.732-1.274-1.519-2.515c1.6.207,3.135.481,4.575.814a45.754,45.754,0,0,1-1.62,4.317Q817.3,409.691,816.559,408.4Zm-8.8-8.629a45.858,45.858,0,0,1,2.943,3.575q-2.964-.149-5.933-.02c.979-1.283,1.982-2.475,2.99-3.555Zm-8.914,8.587q-.743,1.279-1.425,2.591c-.62-1.483-1.149-2.941-1.581-4.349,1.433-.316,2.962-.573,4.554-.767Q799.586,407.075,798.842,408.355Zm1.544,12.82a45.67,45.67,0,0,1-4.624-.758c.448-1.43,1-2.916,1.641-4.427q.677,1.317,1.415,2.6.753,1.31,1.568,2.583Zm7.342,6.108c-1.013-1.1-2.023-2.316-3.009-3.624q1.441.061,2.937.066,1.535,0,3.031-.058a45.606,45.606,0,0,1-2.958,3.616ZM818,415.978a45.555,45.555,0,0,1,1.672,4.421,45.507,45.507,0,0,1-4.685.783q.8-1.259,1.549-2.549Q817.3,417.322,818,415.978Zm-3.319,1.578q-1.147,1.978-2.421,3.878c-1.49.1-3.029.152-4.6.147s-3.081-.058-4.545-.158q-1.294-1.9-2.441-3.9t-2.129-4.051q1-2.06,2.148-4.04h0q1.149-1.979,2.446-3.867c1.493-.108,3.024-.162,4.571-.158s3.087.069,4.579.188q1.271,1.892,2.406,3.869t2.151,4.035q-1.012,2.066-2.17,4.057Zm4.5-23.933c1.678.975,2.319,4.886,1.247,10.01q-.105.5-.229,1a51.362,51.362,0,0,0-6.709-1.082,50.377,50.377,0,0,0-4.227-5.309q.566-.542,1.158-1.055C814.138,393.97,817.605,392.708,819.181,393.623Z" transform="translate(-215.588 -93.884)" fill="#fff"/>
      <path id="Pfad_64" data-name="Pfad 64" d="M839.3,435.738a4.483,4.483,0,1,1-4.5,4.468,4.483,4.483,0,0,1,4.5-4.468" transform="translate(-247.183 -120.654)" fill="#53c1de"/>
    </g>
  </g>
</svg>
