<svg id="Komponente_2_1" data-name="Komponente 2 – 1" xmlns="http://www.w3.org/2000/svg" width="167.27" height="236.1" viewBox="0 0 167.27 236.1">
  <path id="Pfad_80" data-name="Pfad 80" d="M1065.5,337.49l-15.24,170.7-68.5,19-68.31-19-15.22-170.7Z" transform="translate(-898.23 -291.09)" fill="#e44d26"/>
  <path id="Pfad_81" data-name="Pfad 81" d="M981.86,512.67l55.35-15.34,13-145.88H981.86Z" transform="translate(-898.23 -291.09)" fill="#f16529"/>
  <path id="Pfad_82" data-name="Pfad 82" d="M952.24,393.33h29.62V372.39h-52.5l.5,5.62,5.15,57.7h46.86V414.77H954.16ZM957,446.18H936l2.93,32.88L981.77,491h.1V469.15h-.09l-23.32-6.3Z" transform="translate(-898.23 -291.09)" fill="#ebebeb"/>
  <path id="Pfad_83" data-name="Pfad 83" d="M913.8,291.09h10.64V301.6h9.73V291.09h10.64v31.84H934.17V312.27h-9.73v10.66H913.8Zm45,10.56h-9.37V291.09h29.38v10.56h-9.37v21.28H958.81V301.65h0Zm24.68-10.56h11.1l6.83,11.19,6.82-11.19h11.1v31.84h-10.6V307.15l-7.32,11.32h-.18l-7.33-11.32v15.78H983.48Zm41.14,0h10.64V312.4h15v10.52h-25.61V291.09Z" transform="translate(-898.23 -291.09)"/>
  <path id="Pfad_84" data-name="Pfad 84" d="M981.79,435.71h25.78l-2.43,27.16-23.35,6.3V491l42.93-11.9.31-3.54,4.92-55.13.51-5.62H981.79v20.94Zm0-42.43v.05h50.58l.42-4.71,1-10.62.5-5.62h-52.5v20.89Z" transform="translate(-898.23 -291.09)" fill="#fff"/>
</svg>
