<svg xmlns="http://www.w3.org/2000/svg" width="445.868" height="512" viewBox="0 0 445.868 512">
  <g id="idea" transform="translate(-33.066)">
    <path id="Pfad_1" data-name="Pfad 1" d="M314.667,391.467c6.4-21.333,19.2-40.533,36.267-55.467A145.71,145.71,0,0,0,403.2,224c0-83.2-69.333-151.467-154.667-147.2C172.8,80,110.933,144,108.8,219.733,107.733,266.667,128,308.267,161.067,336A114.448,114.448,0,0,1,198.4,391.467Z" fill="#ffd15c"/>
    <path id="Pfad_2" data-name="Pfad 2" d="M242.133,393.6h9.6L209.066,234.667h3.2a21.057,21.057,0,0,0,14.933-6.4,10.312,10.312,0,0,1,14.934,0,18.222,18.222,0,0,0,27.733,0,9.685,9.685,0,0,1,7.467-3.2,11.527,11.527,0,0,1,7.467,3.2c4.267,4.267,8.533,6.4,14.933,6.4h3.2L261.333,393.6h9.6l43.733-166.4c0-2.133,0-4.267-2.133-5.333a4.689,4.689,0,0,0-5.333,1.067q-3.2,3.2-6.4,3.2c-3.2,0-5.333-1.067-8.533-3.2-4.267-4.267-8.533-6.4-13.867-6.4s-9.6,2.133-13.867,6.4a10.31,10.31,0,0,1-14.933,0c-3.2-4.267-8.533-6.4-13.867-6.4h0c-5.333,0-10.667,2.133-13.867,6.4a12.112,12.112,0,0,1-8.533,3.2c-2.133,0-5.333-1.067-6.4-3.2a4.691,4.691,0,0,0-5.333-1.067c-2.133,1.067-3.2,3.2-2.133,5.333Z" fill="#fff"/>
    <path id="Pfad_14" data-name="Pfad 14" d="M314.667,391.467c6.4-21.333,19.2-40.533,36.267-55.467A145.71,145.71,0,0,0,403.2,224c0-83.2-69.333-151.467-154.667-147.2C172.8,80,110.933,144,108.8,219.733,107.733,266.667,128,308.267,161.067,336A114.448,114.448,0,0,1,198.4,391.467" fill="#ffd15c"/>
    <g id="Gruppe_1" data-name="Gruppe 1">
      <path id="Pfad_3" data-name="Pfad 3" d="M222.933,489.6C228.267,502.4,241.067,512,256,512s27.733-9.6,33.067-22.4Z" fill="#344a5e"/>
      <path id="Pfad_4" data-name="Pfad 4" d="M295.467,490.667H217.6a19.12,19.12,0,0,1-19.2-19.2V390.4H314.667v81.067A19.121,19.121,0,0,1,295.467,490.667Z" fill="#344a5e"/>
    </g>
    <g id="Gruppe_2" data-name="Gruppe 2">
      <path id="Pfad_5" data-name="Pfad 5" d="M313.6,430.933H198.4A11.837,11.837,0,0,1,186.667,419.2h0A11.837,11.837,0,0,1,198.4,407.467H313.6A11.837,11.837,0,0,1,325.333,419.2h0A11.837,11.837,0,0,1,313.6,430.933Z" fill="#415a6b"/>
      <path id="Pfad_6" data-name="Pfad 6" d="M313.6,468.267H198.4a11.837,11.837,0,0,1-11.733-11.733h0A11.837,11.837,0,0,1,198.4,444.8H313.6a11.837,11.837,0,0,1,11.733,11.733h0A11.838,11.838,0,0,1,313.6,468.267Z" fill="#415a6b"/>
    </g>
    <g id="Gruppe_3" data-name="Gruppe 3">
      <path id="Pfad_7" data-name="Pfad 7" d="M256,0a10.69,10.69,0,0,0-10.667,10.667V46.934A10.69,10.69,0,0,0,256,57.6c6.4,0,10.667-4.267,10.667-10.667V10.667A10.69,10.69,0,0,0,256,0Z" fill="#ffd15c"/>
      <path id="Pfad_8" data-name="Pfad 8" d="M113.067,65.067A10.559,10.559,0,1,0,98.134,80l25.6,25.6a10.559,10.559,0,0,0,14.933-14.933Z" fill="#ffd15c"/>
      <path id="Pfad_9" data-name="Pfad 9" d="M80,212.267H43.733a10.69,10.69,0,0,0-10.667,10.667h0A10.69,10.69,0,0,0,43.733,233.6H80a10.69,10.69,0,0,0,10.667-10.667h0C90.667,217.6,85.333,212.267,80,212.267Z" fill="#ffd15c"/>
      <path id="Pfad_10" data-name="Pfad 10" d="M123.733,340.267l-25.6,25.6A10.559,10.559,0,0,0,113.066,380.8l25.6-25.6a10.559,10.559,0,1,0-14.933-14.933Z" fill="#ffd15c"/>
      <path id="Pfad_11" data-name="Pfad 11" d="M388.267,340.267A10.56,10.56,0,1,0,373.333,355.2l25.6,25.6a10.559,10.559,0,0,0,14.933-14.933Z" fill="#ffd15c"/>
      <path id="Pfad_12" data-name="Pfad 12" d="M468.267,212.267H432a10.69,10.69,0,0,0-10.667,10.667h0A10.69,10.69,0,0,0,432,233.6h36.267a10.69,10.69,0,0,0,10.667-10.667h0A10.69,10.69,0,0,0,468.267,212.267Z" fill="#ffd15c"/>
      <path id="Pfad_13" data-name="Pfad 13" d="M398.933,65.067l-25.6,25.6A10.559,10.559,0,0,0,388.266,105.6l25.6-25.6a10.559,10.559,0,0,0-14.933-14.933Z" fill="#ffd15c"/>
    </g>
    <path id="Pfad_15" data-name="Pfad 15" d="M1173.539,732.769s2-10.615,10.462-24,10.462-15.231,23.385-29.539,16.154-9.692,28.308-27.692,13.846-22.154,20.308-44.308,5.538-44.308,5.538-44.308-.5-20.8-6.958-40.03-6.455-20.009-18.609-37.856-29.054-33.173-29.054-33.173-15.163-12.762-33.933-20.3-19.908-8.026-40.678-10.179-22.769-2.154-41.846,0-17.951,2.26-35.211,10.179-15.5,5.81-31.653,19.81S1004.154,468.154,991.385,486s-13.121,23.13-19.275,42.361-5.492,23.791-5.492,44.868c0,11.3,1.664,18.305,3.138,25.057,1.535,5.5,4.01,13.062,6.865,23.341a60.022,60.022,0,0,0,4.9,11.474s2.55,5.2,11.572,18.928a39.914,39.914,0,0,0,7.453,9.489c.925.93,2.006,2.307,3.138,3.334,5.8,5.264,10,9.807,20.311,17.456,13.385,14.308,12.923,13.846,20.923,26.462a97.536,97.536,0,0,1,11.077,24Z" transform="translate(-857.934 -343)" fill="none" stroke="#fff" stroke-width="3"/>
  </g>
</svg>
