<svg id="Komponente_1_1" data-name="Komponente 1 – 1" xmlns="http://www.w3.org/2000/svg" width="244.333" height="55.51" viewBox="0 0 244.333 55.51">
  <path id="Pfad_8" data-name="Pfad 8" d="M510.99,141.7l10.259.057S502.176,167.6,500.618,169.71a12.014,12.014,0,0,0-1.664,2.33,52.034,52.034,0,0,0-2,7.321l-9.387.047s1.461-5.241,1.4-8.033c-.053-2.439-1.3-4.875-2-7.321-.706-2.476-1.664-7.321-1.664-7.321h9.651l1.331,5.324,14.7-20.355" transform="translate(-276.916 -137.599)" fill="#fff"/>
  <path id="Pfad_9" data-name="Pfad 9" d="M491.564,147.153c1.893,1.141,3.055,7.437,3.055,7.437s-9.906.146-15.3.146h-4.659l-5.657,24.624h-8.651s5.384-26.76,6.655-31.612c.412-1.571,2.822-1.3,6.891-1.3h6.5c4.2,0,9.1-.536,11.164.705m-40.277,11.993a5.186,5.186,0,0,0-.915-3.411c-1.012-1.56-1.946-1.923-4.609-2.007-7.517-.236-7.371,5.334-7.371,5.334Zm8.152-6.379c1.1,3.974-1,13.311-1,13.311s-10.965-.183-16.971,0c-1.867.057-4.1-.2-4.659.666-.782,1.217.286,3.092,1.191,3.883,1.042.911,3.071,1.015,3.8,1.108,4.875.619,15.077.16,15.077.16l-1.767,7.826s-14.417.723-21.629-1a7.341,7.341,0,0,1-3.66-2c-.246-.266-.46-.628-.693-.942a8.744,8.744,0,0,1-.971-1.721c-1.647-4.389.193-12.8,2-17.3.209-.522.472-1.184.749-1.747.346-.7.638-1.494.915-1.913.186-.289.416-.476.609-.749a11.169,11.169,0,0,1,.722-.915,13.712,13.712,0,0,1,2.33-2c3-2.25,8.442-4,14.974-3.328,2.459.253,6.173,1.131,7.986,3.661a11.169,11.169,0,0,1,1,2.995Zm-39.681-6.349,8.389-.049s-4.675,22.178-7.058,32.993h-9.651c-6.744,0-12.751.835-15.306-3.993-2.479-4.688-.113-12.4,1-17.636.785-3.707,2.44-11.284,2.44-11.284l8.692-.079s-2.456,11.8-3.478,17.686c-.366,2.11-1.121,4.1-.332,5.656.749,1.485,1.8,1.591,4.991,1.664,1.012.024,4.326,0,4.326,0l5.99-24.957m-39.266,15.973c.878-3.121,2.16-6.5,2-9.317a8,8,0,0,0-4.326-6.322,11.084,11.084,0,0,0-11.314,2.662c-2.359,2.556-3.158,5.541-3.993,9.651-.622,3.051-1.131,6.272,0,8.651,2,4.206,8.249,3.288,14.974,3.328,1-2.675,1.823-5.68,2.662-8.652Zm11.647-12.311c.958,6.968-2.718,14.658-5.251,21.346,2.582.233,4.845-.036,5.008.157.17.25-1.731,7.983-2.393,8-2.049.053-8.841.11-11.673.11-9.241,0-17.886.6-22.294-3.993a14.493,14.493,0,0,1-3.328-7.321,31.046,31.046,0,0,1,1-11.313,34.24,34.24,0,0,1,3.328-8.652c3.883-6.778,10.638-11.809,21.962-10.648a21.09,21.09,0,0,1,7.321,2.329c.136.08.613.459.722.526,2.662,1.694,5.088,5.737,5.6,9.457Zm-40.886-3.621c-.559,2.546-1.118,5.431-1.707,7.947h-9.317c.722-2.788,1.274-5.56,2-7.986,2.981,0,5.753.04,9.028.04M339.9,156.733h8.985c-1.175,6.5-3.5,16.99-5.324,24.291-1.141,4.569-1.9,7.9-4.991,10.315-.276.216-.436.114-.666.333-.569.543-3.2,1.172-4.658,1.331a66.98,66.98,0,0,1-7.96-.026c.762-2.785,1.624-6.129,2.3-8.626,7.1.859,7.277-5.85,8.651-12.311.8-3.734,3.2-13.81,3.66-15.307" transform="translate(-276.916 -137.599)" fill="#fff"/>
  <path id="Pfad_10" data-name="Pfad 10" d="M318.932,173.7l-.193.5c-3.281,6.389-9.095,10.309-17.387,10.482a24.309,24.309,0,0,1-9.983-2,25.788,25.788,0,0,1-11.979-11.314c-3.431-6.645-4.05-15.889,3.084-22.794.11,0-.865,1.5-.755,1.5l-.2.639c-5.141,16.1,10.7,29.889,26.095,28.311a20.225,20.225,0,0,0,11.313-5.324" transform="translate(-276.916 -137.599)" fill="#21609b"/>
</svg>
