<svg xmlns="http://www.w3.org/2000/svg" width="512.933" height="471.261" viewBox="0 0 512.933 471.261">
  <g id="Vereinigungsmenge_2" data-name="Vereinigungsmenge 2" transform="translate(0 137)" fill="#fff">
    <path d="M 88.89657592773438 333.7609252929688 L 88.89649963378906 333.7609252929688 C 87.32503509521484 333.7610778808594 86.16934204101563 333.3995361328125 85.46165466308594 332.6864624023438 C 84.68311309814453 331.9029846191406 81.95457458496094 328.2682189941406 79.82080841064453 323.9199829101563 C 77.94126892089844 320.0900573730469 76.03195953369141 314.6846008300781 77.60957336425781 310.6833801269531 C 78.17303466796875 309.2532348632813 78.57672882080078 307.9623718261719 78.96719360351563 306.7140808105469 C 80.10103607177734 303.088623046875 81.08019256591797 299.95751953125 85.46627044677734 295.4187622070313 C 87.44496154785156 293.3711547851563 90.07450103759766 292.0121459960938 93.50518798828125 291.263916015625 C 96.50811004638672 290.6090087890625 99.6824951171875 290.5187683105469 102.6655731201172 290.5187683105469 L 102.7335739135742 290.5187683105469 L 104.0517272949219 290.519287109375 L 103.0655746459961 289.6446838378906 C 98.45380401611328 285.5542907714844 96.01611328125 281.4978332519531 96.01611328125 277.9136962890625 C 96.01611328125 276.62744140625 96.8243408203125 274.9474487304688 98.35350036621094 273.0552978515625 C 99.88988494873047 271.1541442871094 102.0917282104492 269.1204528808594 104.7211151123047 267.1742248535156 C 110.5758056640625 262.8404541015625 117.6620330810547 259.5282897949219 124.1628799438477 258.0870666503906 L 125.4574203491211 257.8000793457031 L 124.295654296875 257.1608276367188 C 120.214958190918 254.9156036376953 117.0522689819336 252.4792175292969 114.8955001831055 249.9192962646484 C 112.5185775756836 247.0982208251953 111.3134231567383 244.0607604980469 111.3134231567383 240.8912963867188 C 111.3134231567383 239.4490661621094 111.794189453125 237.727294921875 112.7423477172852 235.773681640625 C 113.677116394043 233.8477630615234 115.023193359375 231.7843780517578 116.7431869506836 229.6408386230469 C 120.2934188842773 225.2166137695313 125.0853424072266 220.8979949951172 130.2364959716797 217.4804534912109 L 131.3390350341797 216.7489166259766 L 130.0281829833984 216.5685272216797 C 115.3245010375977 214.5445251464844 104.2031097412109 212.9319152832031 94.97226715087891 210.603759765625 C 90.13434600830078 209.3835296630859 86.07557678222656 208.0228424072266 82.56419372558594 206.44384765625 C 78.83688354492188 204.7677612304688 75.67372894287109 202.8262176513672 72.89411163330078 200.5083770751953 C 67.23926544189453 195.7929992675781 63.00757598876953 189.3370666503906 59.57680511474609 180.1913757324219 C 56.29972839355469 171.4553070068359 53.63142013549805 160.0851440429688 50.92511367797852 143.3245391845703 C 50.07965087890625 138.0885314941406 48.85234451293945 132.6439971923828 47.17303466796875 126.6798400878906 C 45.67596054077148 121.3627624511719 43.84926605224609 115.7449188232422 41.58857345581055 109.5052261352539 C 37.38765335083008 97.91060638427734 32.24888229370117 85.78253173828125 27.27919006347656 74.05376434326172 C 20.84634399414063 58.87168502807617 14.19442081451416 43.17261123657227 9.18372917175293 27.81607055664063 C 6.485344409942627 19.54591751098633 4.48080587387085 12.07537937164307 3.055575132369995 4.977378845214844 C 1.454421162605286 -2.996774911880493 0.622575044631958 -10.2869291305542 0.5123442411422729 -17.3096981048584 C 0.3938827216625214 -24.85631370544434 1.154190421104431 -32.0792350769043 2.772036552429199 -38.77800750732422 C 4.505421161651611 -45.95492935180664 7.291574954986572 -52.82046890258789 11.05319023132324 -59.18392944335938 C 15.04219055175781 -65.93208312988281 20.27326774597168 -72.36346435546875 26.6011905670166 -78.29946899414063 C 33.26142120361328 -84.54730987548828 41.36365127563477 -90.46023559570313 50.68265151977539 -95.87400817871094 C 74.59295654296875 -109.7640075683594 106.1986541748047 -120.3066177368164 144.6216583251953 -127.2090072631836 C 162.110107421875 -130.3506164550781 181.0592651367188 -132.7317047119141 200.9427337646484 -134.2861633300781 C 219.7340393066406 -135.7551574707031 239.5201110839844 -136.5 259.7512817382813 -136.5 C 281.0505065917969 -136.5 302.8258056640625 -135.6796264648438 324.4721984863281 -134.0616149902344 C 345.2195739746094 -132.5108489990234 365.5771179199219 -130.2503204345703 384.9793395996094 -127.3427734375 C 403.9513549804688 -124.4996948242188 421.6046447753906 -121.1004638671875 437.4490356445313 -117.2396240234375 C 453.3174133300781 -113.3728485107422 466.9769592285156 -109.1390075683594 478.0480346679688 -104.6556243896484 C 490.2021789550781 -99.73377227783203 498.6822814941406 -85.48031616210938 503.2528076171875 -62.29116058349609 C 504.9072570800781 -53.8968505859375 506.0595092773438 -44.21177673339844 506.6774291992188 -33.50485229492188 C 507.1910400390625 -24.60500526428223 507.26025390625 -16.58539009094238 507.26025390625 -9.914390563964844 C 507.26025390625 9.698225021362305 508.5927429199219 30.59437942504883 509.88134765625 50.80245590209961 C 510.7796630859375 64.89115142822266 511.7086486816406 79.45945739746094 512.1531982421875 93.23052978515625 C 512.650634765625 108.639762878418 512.4791870117188 121.5053787231445 511.6291198730469 132.5626068115234 C 510.6124267578125 145.787841796875 508.6287231445313 156.8058471679688 505.5647277832031 166.2460784912109 C 503.9098815917969 171.3446044921875 501.9063415527344 176.0299987792969 499.6096496582031 180.1721496582031 C 497.2064208984375 184.5065307617188 494.3977966308594 188.3989868164063 491.2618713378906 191.7412261962891 C 488.6027221679688 194.5753021240234 485.6291198730469 197.0989227294922 482.4234313964844 199.2420654296875 C 479.1183471679688 201.4516143798828 475.4625854492188 203.3264617919922 471.5574951171875 204.814453125 C 467.5387268066406 206.3458404541016 463.1316528320313 207.5149230957031 458.4588928222656 208.2893829345703 C 453.6597290039063 209.0846862792969 448.4343566894531 209.4879913330078 442.9277954101563 209.4879913330078 C 436.8428955078125 209.4879913330078 426.2005615234375 210.2764587402344 411.2963562011719 211.8313751220703 C 399.3828735351563 213.0743713378906 384.7303466796875 214.807373046875 367.7459716796875 216.9822998046875 C 339.1548461914063 220.6435699462891 313.4142150878906 224.3519744873047 312.5890502929688 224.4710235595703 C 311.5887145996094 224.5402679443359 274.628173828125 227.0745391845703 237.0374145507813 227.0746917724609 C 223.9606475830078 227.0746917724609 212.1949615478516 226.7689208984375 202.0671081542969 226.1658477783203 L 200.1419525146484 226.0512237548828 L 201.7689666748047 227.0868377685547 C 202.8484954833984 227.7739105224609 203.5778045654297 228.3656158447266 203.9364166259766 228.8453826904297 C 205.4915008544922 230.9272308349609 205.1122741699219 234.4111480712891 202.8090362548828 239.1999969482422 C 200.9130401611328 243.1423034667969 197.7260437011719 247.9306030273438 193.3366546630859 253.4319915771484 C 186.4208068847656 262.0999755859375 178.6501007080078 269.8377685546875 177.4255218505859 271.0451354980469 C 176.5318756103516 270.9537658691406 173.1112823486328 270.5866394042969 168.3171081542969 269.8604431152344 L 167.4638824462891 269.7312316894531 L 167.7761077880859 270.5357666015625 C 169.7422637939453 275.6018371582031 170.4220428466797 276.650146484375 170.7623443603516 276.9979858398438 C 171.6279602050781 277.8828430175781 172.01611328125 278.8154602050781 171.9488067626953 279.8489990234375 C 171.8521881103516 281.3341369628906 170.8111114501953 283.0623168945313 168.7660369873047 285.1322326660156 C 166.8977355957031 287.0231628417969 164.4368896484375 288.9585266113281 162.0570373535156 290.830078125 C 158.6854248046875 293.4817504882813 155.500732421875 295.9862976074219 154.0073394775391 298.3002319335938 C 152.7061157226563 300.3166809082031 150.7876586914063 301.8473815917969 148.3051910400391 302.8497619628906 C 145.9731903076172 303.7915344238281 143.1512603759766 304.2690734863281 139.9178009033203 304.2691345214844 C 134.1469573974609 304.2692260742188 127.1438827514648 302.7145385742188 120.19873046875 299.8912963867188 L 118.6948089599609 299.2799072265625 L 119.5941925048828 300.6314697265625 C 119.6187286376953 300.6683654785156 119.6415786743164 300.7037658691406 119.6625747680664 300.7373657226563 C 120.9854965209961 302.8609313964844 122.0977325439453 305.4129028320313 122.7141876220703 307.7392883300781 C 123.4465713500977 310.5030822753906 123.4708023071289 312.846923828125 122.784423828125 314.5175476074219 C 122.2598037719727 315.7938537597656 120.5498046875 317.6663818359375 117.9694213867188 319.7900695800781 C 115.4510345458984 321.8628540039063 112.1474990844727 324.1390075683594 108.6674194335938 326.1990661621094 C 104.9869613647461 328.3778381347656 101.2801895141602 330.2264709472656 97.94795989990234 331.5450744628906 C 94.28480529785156 332.9945373535156 91.15488433837891 333.7607727050781 88.89657592773438 333.7609252929688 Z" stroke="none"/>
    <path d="M 88.89649963378906 333.2609252929688 C 91.09249877929688 333.2607727050781 94.15880584716797 332.5066833496094 97.76396179199219 331.0801391601563 C 101.0721893310547 329.7710571289063 104.7545013427734 327.9343872070313 108.412727355957 325.7688293457031 C 111.8714218139648 323.7213745117188 115.1524963378906 321.4609985351563 117.651725769043 319.4040832519531 C 121.0488815307617 316.6080017089844 122.0359573364258 315.0232238769531 122.3219604492188 314.3274536132813 C 122.9665756225586 312.7586059570313 122.9350357055664 310.5247497558594 122.2308807373047 307.8673706054688 C 121.6266555786133 305.587158203125 120.5358810424805 303.0847778320313 119.238037109375 301.0016174316406 C 119.2196502685547 300.9719848632813 119.1995010375977 300.94091796875 119.1778793334961 300.908447265625 L 117.3791885375977 298.2053833007813 L 120.3870391845703 299.4280700683594 C 127.2738037109375 302.2276000976563 134.2099609375 303.769287109375 139.9178009033203 303.7691345214844 C 143.0867309570313 303.7690734863281 145.8457336425781 303.3037719726563 148.1180419921875 302.3861389160156 C 150.5028839111328 301.4231567382813 152.3430328369141 299.9572143554688 153.5871887207031 298.0291442871094 C 155.1259613037109 295.6449890136719 158.3424987792969 293.1152954101563 161.7479553222656 290.4370727539063 C 166.1994171142578 286.9363098144531 171.2448120117188 282.9683837890625 171.4498901367188 279.8164672851563 C 171.5074157714844 278.9327697753906 171.1655731201172 278.1252136230469 170.4048767089844 277.3475952148438 C 170.1462707519531 277.0832214355469 169.5405731201172 276.4641418457031 167.3100433349609 270.7166137695313 L 166.6855773925781 269.1076049804688 L 168.3920440673828 269.3661499023438 C 172.8274383544922 270.0379638671875 176.0836334228516 270.4016418457031 177.2420501708984 270.5234375 C 178.8816528320313 268.8990173339844 186.3082733154297 261.4392700195313 192.94580078125 253.1201477050781 C 197.3118133544922 247.6481475830078 200.4786529541016 242.8917694091797 202.3584136962891 238.9833068847656 C 203.4466552734375 236.7206115722656 204.1016540527344 234.7395324707031 204.3050384521484 233.0952301025391 C 204.5107269287109 231.4324493408203 204.2518768310547 230.1032257080078 203.5359649658203 229.1447601318359 C 203.3143463134766 228.8482971191406 202.7813415527344 228.3238372802734 201.5005035400391 227.5086059570313 L 198.2464141845703 225.4374542236328 L 202.0968780517578 225.6667633056641 C 212.2136535644531 226.2692260742188 223.9693450927734 226.5746917724609 237.0374145507813 226.5746917724609 C 274.41748046875 226.5745391845703 311.1766967773438 224.0673065185547 312.5360717773438 223.9734954833984 C 313.6671447753906 223.8104095458984 339.2674865722656 220.1250457763672 367.6824340820313 216.4863739013672 C 384.6707153320313 214.3109130859375 399.3271179199219 212.5774536132813 411.2445068359375 211.3340759277344 C 426.1658020019531 209.7772979736328 436.8256530761719 208.9879913330078 442.9277954101563 208.9879913330078 C 448.4070434570313 208.9879913330078 453.6049499511719 208.5869903564453 458.3771057128906 207.7960662841797 C 463.0171203613281 207.0271453857422 467.3917236328125 205.8667602539063 471.3794860839844 204.3472290039063 C 475.2494201660156 202.8726043701172 478.8716430664063 201.0150756835938 482.1455688476563 198.8263854980469 C 485.3196411132813 196.7043762207031 488.2640991210938 194.2054595947266 490.8972778320313 191.3990783691406 C 494.0049743652344 188.0869140625 496.7891235351563 184.2280731201172 499.1724243164063 179.9296875 C 501.4534912109375 175.8155364990234 503.4441833496094 171.1597595214844 505.089111328125 166.0917663574219 C 508.1408081054688 156.6896057128906 510.1169738769531 145.7095336914063 511.1306457519531 132.5243072509766 C 511.9792785644531 121.4853820800781 512.1502685546875 108.6376113891602 511.6534118652344 93.24668884277344 C 511.2091979980469 79.48345947265625 510.2804260253906 64.91907501220703 509.3823547363281 50.83430099487305 C 508.09326171875 30.61837959289551 506.76025390625 9.714224815368652 506.76025390625 -9.914390563964844 C 506.76025390625 -16.57831382751465 506.6911010742188 -24.58885192871094 506.1781921386719 -33.47608184814453 C 505.5616455078125 -44.16023635864258 504.412353515625 -53.82246780395508 502.7621765136719 -62.19446563720703 C 498.2264099121094 -85.20761871337891 489.8482055664063 -99.33769989013672 477.8603515625 -104.1922378540039 C 466.8117370605469 -108.6664657592773 453.1755676269531 -112.8927764892578 437.3306579589844 -116.753776550293 C 421.5008850097656 -120.6111602783203 403.8624267578125 -124.0074691772461 384.9052734375 -126.8483123779297 C 365.5151977539063 -129.7540130615234 345.1700439453125 -132.0131530761719 324.4349670410156 -133.5630035400391 C 302.8008728027344 -135.1800842285156 281.0381164550781 -136 259.7512817382813 -136 C 239.5331115722656 -136 219.7601165771484 -135.255615234375 200.9816589355469 -133.7876281738281 C 181.1147308349609 -132.2345428466797 162.1822662353516 -129.8555450439453 144.7101135253906 -126.7168502807617 C 106.3445739746094 -119.8248519897461 74.79365539550781 -109.3023147583008 50.93380737304688 -95.44161987304688 C 41.64749908447266 -90.04685211181641 33.57595825195313 -84.15670013427734 26.94326782226563 -77.93477630615234 C 20.64988327026367 -72.03123474121094 15.44857501983643 -65.63693237304688 11.48357486724854 -58.92946624755859 C 7.747267246246338 -52.6087760925293 4.979805946350098 -45.78931427001953 3.258036613464355 -38.66062164306641 C 1.650113463401794 -32.00285339355469 0.8944981098175049 -24.82200622558594 1.012267351150513 -17.31754493713379 C 1.122036576271057 -10.3255443572998 1.950728893280029 -3.065005779266357 3.545805692672729 4.878917217254639 C 4.967113494873047 11.95753288269043 6.966805934906006 19.40960884094238 9.659113883972168 27.6609935760498 C 14.66311359405518 42.99722671508789 21.31080627441406 58.68622589111328 27.73957443237305 73.85868835449219 C 32.71180725097656 85.59345245361328 37.85326766967773 97.72776031494141 42.05865097045898 109.3349151611328 C 44.3234977722168 115.5861511230469 46.15388107299805 121.2153778076172 47.65434265136719 126.5443801879883 C 49.33888244628906 132.5270690917969 50.5701904296875 137.9898376464844 51.41872787475586 143.2448425292969 C 54.11949920654297 159.9713745117188 56.77996063232422 171.3119964599609 60.04496002197266 180.0157623291016 C 63.44411468505859 189.0770721435547 67.62873077392578 195.4666900634766 73.21434783935547 200.1243743896484 C 75.95849609375 202.4126892089844 79.08396148681641 204.3306121826172 82.76926422119141 205.9878387451172 C 86.25365447998047 207.5546875 90.28527069091797 208.9059906005859 95.09457397460938 210.1189117431641 C 104.3005752563477 212.4408416748047 115.4087295532227 214.0513763427734 130.0964202880859 216.0731506347656 L 132.7181091308594 216.4340667724609 L 130.5128784179688 217.8971557617188 C 125.4035720825195 221.2869110107422 120.6519622802734 225.5686798095703 117.1331939697266 229.9537658691406 C 113.7524185180664 234.1669158935547 111.8134231567383 238.1534576416016 111.8134231567383 240.8912963867188 C 111.8134231567383 243.9396057128906 112.9790344238281 246.8686828613281 115.2778854370117 249.5971527099609 C 117.3948822021484 252.1099243164063 120.5100402832031 254.5073089599609 124.5367279052734 256.7227783203125 L 126.8602676391602 258.001220703125 L 124.271110534668 258.5752258300781 C 117.8362655639648 260.0018310546875 110.818962097168 263.2825317382813 105.0185775756836 267.5760803222656 C 102.4228057861328 269.4975280761719 100.2524948120117 271.5008544921875 98.74234771728516 273.3695373535156 C 97.30673217773438 275.14599609375 96.51611328125 276.7598266601563 96.51611328125 277.9136962890625 C 96.51611328125 279.6390686035156 97.12419128417969 281.5051574707031 98.32334136962891 283.4599914550781 C 99.49327087402344 285.3670654296875 101.2004241943359 287.3220825195313 103.397346496582 289.2705993652344 L 105.3683471679688 291.0187683105469 L 102.7338027954102 291.0187683105469 L 102.6655731201172 291.0187683105469 C 96.73780822753906 291.0187683105469 90.05903625488281 291.3856201171875 85.8258056640625 295.7662353515625 C 81.52210998535156 300.2198486328125 80.55926513671875 303.2985229492188 79.44434356689453 306.8633117675781 C 79.05134582519531 308.1201477050781 78.64488220214844 309.419677734375 78.07472991943359 310.8667602539063 C 76.56403350830078 314.6982116699219 78.43450164794922 319.9602355957031 80.2696533203125 323.6997680664063 C 82.37765502929688 327.9953918457031 85.0548095703125 331.5677490234375 85.81649780273438 332.334228515625 C 86.4268798828125 332.9493103027344 87.46311187744141 333.2610778808594 88.89649963378906 333.2609252929688 M 88.89657592773438 334.2609252929688 C 87.25803375244141 334.2610778808594 85.94788360595703 333.88623046875 85.10672760009766 333.0386962890625 C 83.54341888427734 331.4655456542969 74.03134155273438 318.3956909179688 77.14442443847656 310.5 C 79.35749816894531 304.8831481933594 79.13611602783203 301.2498474121094 85.10672760009766 295.0712890625 C 89.66684722900391 290.3523559570313 96.80536651611328 290.0187377929688 102.6655883789063 290.0187377929688 C 102.6885681152344 290.0187377929688 102.7108612060547 290.0187683105469 102.7338027954102 290.0187683105469 C 98.32318878173828 286.1068420410156 95.51611328125 281.8700561523438 95.51611328125 277.9136962890625 C 95.51611328125 272.1198425292969 109.7565765380859 260.7688293457031 124.0546493530273 257.5989074707031 C 116.265495300293 253.3133087158203 110.8134231567383 247.8339233398438 110.8134231567383 240.8912963867188 C 110.8134231567383 234.689453125 119.2041168212891 224.1999206542969 129.9600372314453 217.0638427734375 C 72.80280303955078 209.1959991455078 60.59703826904297 206.3609924316406 50.43149948120117 143.4042205810547 C 37.94757461547852 66.08792114257813 -56.51911544799805 -34.17477416992188 50.43149948120117 -96.30631256103516 C 101.1460037231445 -125.7675018310547 180.8818054199219 -137.0000152587891 259.7512817382813 -137.0000152587891 C 347.2091979980469 -137.0000152587891 433.6043395996094 -123.1929016113281 478.2357177734375 -105.1190795898438 C 506.8899536132813 -93.51538848876953 507.76025390625 -34.50777435302734 507.76025390625 -9.914390563964844 C 507.76025390625 87.28737640380859 540.129638671875 209.9879913330078 442.9277954101563 209.9879913330078 C 416.3265075683594 209.9879913330078 312.6420288085938 224.9685363769531 312.6420288085938 224.9685363769531 C 312.6420288085938 224.9685363769531 275.4144592285156 227.5745697021484 237.0374450683594 227.5746765136719 C 225.1209869384766 227.5747222900391 213.0960693359375 227.3235015869141 202.0374145507813 226.6649932861328 C 203.1390380859375 227.3661499023438 203.9291839599609 228.0006103515625 204.3368835449219 228.5459899902344 C 211.6827239990234 238.3802947998047 177.6087341308594 271.5660095214844 177.6087341308594 271.5660095214844 C 177.6087341308594 271.5660095214844 173.9053497314453 271.2126159667969 168.2422637939453 270.3548278808594 C 169.4030303955078 273.3457641601563 170.5614166259766 276.0776062011719 171.1197357177734 276.6483154296875 C 177.5988006591797 283.2713928222656 158.6403503417969 292.043701171875 154.4274139404297 298.5713806152344 C 151.5997161865234 302.9533081054688 146.2650604248047 304.7689819335938 139.9178314208984 304.7691345214844 C 133.7794189453125 304.7692565917969 126.6940155029297 303.0713500976563 120.0104217529297 300.3544616699219 C 120.037956237793 300.3958435058594 120.0635757446289 300.4354553222656 120.0870361328125 300.47314453125 C 122.560188293457 304.4429931640625 124.8551940917969 310.7933654785156 123.2468795776367 314.70751953125 C 120.8953475952148 320.4283752441406 98.84926605224609 334.2603759765625 88.89657592773438 334.2609252929688 Z" stroke="none" fill="#e9dfdf"/>
  </g>
</svg>
